<svg width="512" height="512" viewBox="0 0 512 512" fill="none" xmlns="http://www.w3.org/2000/svg">
<g clip-path="url(#clip0_460_2)">
<path d="M375.75 93.85C375.2 94 371.25 95.6 367 97.35C349 104.85 335.2 108.95 300 117.05C264.65 125.2 255.2 127.65 241.5 132.1C204.4 144.2 176.55 162.9 156.7 189.1C124.2 231.95 115.5 284.65 129.8 352.25L131.65 360.8L126.65 367.55C119.75 376.8 109.6 391.35 108.45 393.6C107.9 394.65 107.5 396.5 107.5 397.8C107.5 403.15 111.25 407 116.45 407C121.95 407 123.4 405.6 134.3 390C146.35 372.75 149.9 368.2 158.15 359.4C171.85 344.8 198 318.6 199.7 317.8C201.2 317.1 204.9 317 231.4 317H261.45L263.95 319.65C265.35 321.15 267.8 323 269.35 323.8C272 325.15 272.7 325.25 277.5 325.25C282.15 325.25 283.05 325.1 285.65 323.9C293.25 320.35 297.6 312 296 304.2C294.45 296.75 289.6 291.35 282.55 289.3C275.1 287.1 266.5 290.2 262.4 296.5L260.75 299H238.75H216.75L237.25 278.5L257.75 258H281.15H304.6L306.75 260.4C307.95 261.75 310.35 263.6 312.1 264.55C315.1 266.2 315.45 266.25 320.5 266.25C325.25 266.25 326 266.1 328.25 264.9C332.05 262.9 334.65 260.4 336.55 256.9C338.2 253.85 338.25 253.55 338.25 248.25C338.25 243.25 338.15 242.5 336.85 239.9C333.75 233.6 328.25 229.9 321.4 229.6C314.55 229.25 309.25 231.9 305.3 237.65L303.3 240.5H289.05H274.75L284.5 230.7C289.85 225.3 301 214.35 309.25 206.35L324.25 191.75L328 191.7C339.05 191.5 347.05 182.95 346.4 172.1C346 165.25 342.8 160.15 336.9 156.95C333.9 155.3 333.325 155 328.5 155C323.675 155 322.9 155.4 320.4 156.6C316.85 158.25 313.5 161.65 311.65 165.4C310.45 167.9 310.25 168.85 310.25 173C310.25 175.6 310.35 178.2 310.5 178.8C310.7 179.6 305.8 184.7 285.6 204.7L260.5 229.6V223.7L260.55 217.75L263 216.1C272.35 209.75 273.3 196.05 265 188.3C259.75 183.4 253.1 181.9 246.4 184C243.25 185.05 242.3 185.6 239.45 188.45C235.25 192.65 233.85 195.9 233.85 201.75C233.8 205.25 234 206.2 235.4 209.15C236.35 211.25 237.9 213.4 239.5 214.95L242 217.35V233.05V248.75L195 295.75L148.05 342.8L147.5 340.3C146.3 334.75 144.5 324.35 143.65 318C142.35 308.35 142.35 282.65 143.65 273C146.2 254.3 150.35 240.3 158 224.75C169.9 200.5 187.75 181.35 211.9 167.05C231.55 155.35 249.9 149.1 296.5 138.25C329.65 130.55 348.75 125.25 361.65 120.3C366.15 118.55 368.65 117.8 368.8 118.2C369.1 119.1 372.4 153.25 373.55 167.25C374.85 183.9 375.35 210.1 374.55 222.5C372.7 251.4 366.5 275.05 355.45 295.2C348.9 307.2 342.75 315.35 333.05 325C314.35 343.65 289.45 356.65 260.35 363C246.95 365.95 237.9 366.9 219.25 367.5C207.85 367.85 203.1 368.2 199.5 368.95C190.8 370.75 182.8 373.7 180.15 376.15C178.75 377.4 178.6 380.75 179.75 383C181.05 385.55 182.95 386.15 191.25 386.55C221.35 388.05 246.9 386.05 270 380.45C330.2 365.8 372.2 325.25 387.25 267.25C392.65 246.3 394.85 224.95 394.35 197.75C393.9 175.05 392.35 155.9 388 119.9C385.45 98.45 385.55 99.25 384.3 97.4C382.55 94.75 378.55 93.1 375.75 93.85Z" fill="white"/>
</g>
<defs>
<clipPath id="clip0_460_2">
<rect width="512" height="512" fill="white"/>
</clipPath>
</defs>
</svg>
