<svg color="#777777" width="48" height="48" viewBox="0 0 48 48" fill="none" xmlns="http://www.w3.org/2000/svg">
<path d="M18 10H14C12.9391 10 11.9217 10.4214 11.1716 11.1716C10.4214 11.9217 10 12.9391 10 14V18M18 10V6M18 10H30M10 18V30M10 18H6M30 10H34C35.0609 10 36.0783 10.4214 36.8284 11.1716C37.5786 11.9217 38 12.9391 38 14V34C38 35.0609 37.5786 36.0783 36.8284 36.8284C36.0783 37.5786 35.0609 38 34 38H14C12.9391 38 11.9217 37.5786 11.1716 36.8284C10.4214 36.0783 10 35.0609 10 34V30M30 10V6M10 30H6M18 42V38M30 42V38M42 30H38M42 18H38M26 20H22C21.4696 20 20.9609 20.2107 20.5858 20.5858C20.2107 20.9609 20 21.4696 20 22V26C20 26.5304 20.2107 27.0391 20.5858 27.4142C20.9609 27.7893 21.4696 28 22 28H26C26.5304 28 27.0391 27.7893 27.4142 27.4142C27.7893 27.0391 28 26.5304 28 26V22C28 21.4696 27.7893 20.9609 27.4142 20.5858C27.0391 20.2107 26.5304 20 26 20Z" stroke="white" stroke-width="4" stroke-linecap="round" stroke-linejoin="round"/>
</svg>
