<svg width="48" height="48" viewBox="0 0 48 48" fill="none" xmlns="http://www.w3.org/2000/svg">
<path d="M8 24H40M21 11V37M8 33.974V14.026C7.99988 13.7399 8.10199 13.4631 8.28792 13.2457C8.47384 13.0282 8.73135 12.8843 9.014 12.84L38.614 8.214C38.7853 8.18713 38.9603 8.19768 39.1271 8.24494C39.2939 8.29219 39.4485 8.37503 39.5802 8.48774C39.7119 8.60045 39.8176 8.74036 39.8901 8.89784C39.9626 9.05532 40.0001 9.22664 40 9.4V38.596C40.0001 38.7694 39.9626 38.9407 39.8901 39.0982C39.8176 39.2556 39.7119 39.3955 39.5802 39.5083C39.4485 39.621 39.2939 39.7038 39.1271 39.7511C38.9603 39.7983 38.7853 39.8089 38.614 39.782L9.014 35.156C8.73169 35.1117 8.47445 34.9681 8.28857 34.7511C8.10268 34.534 8.00036 34.2598 8 33.974Z" stroke="#8C8B87" stroke-width="3"/>
</svg>
